{"title":"Acoustic at the BBC. (Guitar Performances) 2011 832x468[aularon]","uid":6648726,"size":665374393,"categoryP":"video","categoryS":"tv_shows","magnet":"?xt=urn:btih:54c21921f4c9a096f9994e141a3f67fc54d3b0c5&amp;dn=Acoustic+at+the+BBC.+%28Guitar+Performances%29+2011+832x468%5Baularon%5D&amp;tr=udp%3A%2F%2Ftracker.openbittorrent.com%3A80&amp;tr=udp%3A%2F%2Fopen.demonii.com%3A1337&amp;tr=udp%3A%2F%2Ftracker.coppersurfer.tk%3A6969&amp;tr=udp%3A%2F%2Fexodus.desync.com%3A6969","seeders":0,"leechers":0,"uploader":"aularon","files":-1,"time":1315054957,"description":"Acoustic at the BBC. (Guitar Performances) 2011 832x468 x264 aac mp4 w/subtitles [aularon]\n\n\n- - -\nSynopsis\n- - -\nA journey through some of the finest moments of acoustic guitar performances from the BBC archives, from Jimmy Page's television debut in 1958 to Oasis and Biffy Clyro. Other highlights include Neil Young's Heart of Gold, David Bowie's Starman, Donovan's Mellow Yellow, Joan Armatrading's Woncha Come on Home, Bert Jansch, Johnny Marr and Bernard Butler, and Joni Mitchell's Chelsea Morning.\n\n\n- - -\nURL\n- - -        &lt;a href=&quot;\nhttp://www.bbc.co.uk/programmes/b0141mz1&quot; rel=&quot;nofollow&quot; target=&quot;_NEW&quot;&gt;\nhttp://www.bbc.co.uk/programmes/b0141mz1&lt;/a&gt;\n\n\n- - -\nTechnical Details\n- - -\nGeneral\nComplete name                    : BBC.Acoustic.at.the.BBC/Acoustic_at_the_BBC_-_Acoustic_at_the_BBC_b0141mz1_default.mp4\nFormat                           : MPEG-4\nFormat profile                   : Base Media\nCodec ID                         : isom\nFile size                        : 634 MiB\nDuration                         : 59mn 2s\nOverall bit rate                 : 1 502 Kbps\nMovie name                       : Acoustic at the BBC\nAlbum                            : Acoustic at the BBC\nPerformer                        : Acoustic at the BBC\nGenre                            : Music,Classic Pop &amp; Rock\nRecorded date                    : 2011-09-02T22:00:00+01:00\nTagged date                      : UTC 2011-09-03 10:51:58\nWriting application              : Lavf53.10.0\nCover                            : Yes\nComment                          : Recorded using get_iplayer, by Aularon.\nrtng                             : 4\nstik                             : 1\ndesc                             : A journey through some of the finest moments of acoustic guitar performances from the BBC archives, from Jimmy Page's television debut in 1958 to Oasis and Biffy Clyro.\ntvnn                             : BBC Four\ntvsh                             : Acoustic at the BBC\ntven                             : b0141mz1\ncatg                             : Music,Classic Pop &amp; Rock\n\nVideo\nID                               : 1\nFormat                           : AVC\nFormat/Info                      : Advanced Video Codec\nFormat profile                   : &lt;a class=&quot;__cf_email__&quot; href=&quot;/cdn-cgi/l/email-protection&quot; data-cfemail=&quot;ace1cdc5c2ece09f829c&quot;&gt;[email&amp;#160;protected]&lt;/a&gt;&lt;script data-cfhash='f9e31' type=&quot;text/javascript&quot;&gt;\n/* &lt;![CDATA[ */!function(){try{var t=&quot;currentScript&quot;in document?document.currentScript:function(){for(var t=document.getElementsByTagName(&quot;script&quot;),e=t.length;e--;)if(t[e].getAttribute(&quot;data-cfhash&quot;))return t[e]}();if(t&amp;&amp;t.previousSibling){var e,r,n,i,c=t.previousSibling,a=c.getAttribute(&quot;data-cfemail&quot;);if(a){for(e=&quot;&quot;,r=parseInt(a.substr(0,2),16),n=2;a.length-n;n+=2)i=parseInt(a.substr(n,2),16)^r,e+=String.fromCharCode(i);e=document.createTextNode(e),c.parentNode.replaceChild(e,c)}t.parentNode.removeChild(t);}}catch(u){}}()/* ]]&gt; */&lt;/script&gt;\nFormat settings, CABAC           : Yes\nFormat settings, ReFrames        : 4 frames\nFormat settings, GOP             : M=4, N=42\nCodec ID                         : avc1\nCodec ID/Info                    : Advanced Video Coding\nDuration                         : 59mn 2s\nBit rate mode                    : Constant\nBit rate                         : 1 404 Kbps\nWidth                            : 832 pixels\nHeight                           : 468 pixels\nDisplay aspect ratio             : 16:9\nFrame rate mode                  : Constant\nFrame rate                       : 25.000 fps\nStandard                         : PAL\nColor space                      : YUV\nChroma subsampling               : 4:2:0\nBit depth                        : 8 bits\nScan type                        : Progressive\nBits/(Pixel*Frame)               : 0.144\nStream size                      : 592 MiB (93%)\n\nAudio\nID                               : 2\nFormat                           : AAC\nFormat/Info                      : Advanced Audio Codec\nFormat profile                   : HE-AAC / LC\nCodec ID                         : 40\nDuration                         : 59mn 2s\nBit rate mode                    : Constant\nBit rate                         : 96.0 Kbps\nChannel(s)                       : 2 channels\nChannel positions                : Front: L R\nSampling rate                    : 48.0 KHz / 24.0 KHz\nCompression mode                 : Lossy\nStream size                      : 40.0 MiB (6%)\n\n\n                  ______                                     \n                 (____  \\                                    \n                  ____)  )_____  ____ _____ _   _  ___ _____ \n                 |  __  (| ___ |/ ___|____ | | | |/___) ___ |\n            _ _ _| |__)  ) ____( (___/ ___ | |_| |___ | ____|\n           (_|_|_)______/|_____)\\____)_____|____/(___/|_____)\n                                                              \n                   ______ _                 _             \n                  / _____) |               (_)            \n                 ( (____ | |__  _____  ____ _ ____   ____ \n                  \\____ \\|  _ \\(____ |/ ___) |  _ \\ / _  |\n                  _____) ) | | / ___ | |   | | | | ( (_| |\n                 (______/|_| |_\\_____|_|   |_|_| |_|\\___ |\n                                                   (_____|\n                                  _      \n                                 (_)     \n                                  _  ___ \n                                 | |/___)\n                                 | |___ |\n                                 |_(___/ \n\n                    _______             _               \n                   (_______)           (_)              \n                    _       _____  ____ _ ____   ____   \n                   | |     (____ |/ ___) |  _ \\ / _  |  \n                   | |_____/ ___ | |   | | | | ( (_| |_ \n                    \\______)_____|_|   |_|_| |_|\\___ (_)\n                                               (_____|  \n\n                                    ;)\n\n","torrent":{"xt":"urn:btih:54c21921f4c9a096f9994e141a3f67fc54d3b0c5","amp;dn":"Acoustic+at+the+BBC.+%28Guitar+Performances%29+2011+832x468%5Baularon%5D","amp;tr":["udp%3A%2F%2Ftracker.openbittorrent.com%3A80","udp%3A%2F%2Fopen.demonii.com%3A1337","udp%3A%2F%2Ftracker.coppersurfer.tk%3A6969","udp%3A%2F%2Fexodus.desync.com%3A6969"],"infoHash":"54c21921f4c9a096f9994e141a3f67fc54d3b0c5","infoHashBuffer":{"type":"Buffer","data":[84,194,25,33,244,201,160,150,249,153,78,20,26,63,103,252,84,211,176,197]},"announce":[],"urlList":[]}}